<?xml version="1.0" encoding="UTF-8" standalone="no"?>
<svg xmlns:svg="http://www.w3.org/2000/svg"
     xmlns="http://www.w3.org/2000/svg" version="1.1"
     width="360" height="185">
    <!-- Created with the Wikimedia parliament diagram creator (http://parliamentdiagram.toolforge.org/parliamentinputform.html) -->
    <g>
        <text x="175" y="175" 
              style="font-size:36px;font-weight:bold;text-align:center;text-anchor:middle;font-family:sans-serif">
            155
        </text>
        <g style="fill:#E6007E; stroke-width:0.00; stroke:#000000" 
           id="0_Agrarian-Labor-Party"> 
            <circle cx="12.24" cy="174.29" r="5.71"/> 
            <circle cx="26.53" cy="174.29" r="5.71"/> 
            <circle cx="40.83" cy="174.29" r="5.71"/> 
            <circle cx="55.13" cy="174.29" r="5.71"/> 
            <circle cx="69.43" cy="174.29" r="5.71"/> 
            <circle cx="83.74" cy="174.29" r="5.71"/> 
            <circle cx="98.06" cy="174.29" r="5.71"/> 
            <circle cx="13.70" cy="157.16" r="5.71"/> 
            <circle cx="28.27" cy="156.27" r="5.71"/> 
            <circle cx="42.69" cy="156.64" r="5.71"/> 
            <circle cx="57.27" cy="156.28" r="5.71"/> 
            <circle cx="71.96" cy="155.80" r="5.71"/> 
            <circle cx="16.91" cy="140.27" r="5.71"/> 
            <circle cx="86.53" cy="156.31" r="5.71"/> 
            <circle cx="32.12" cy="138.57" r="5.71"/> 
            <circle cx="46.77" cy="139.37" r="5.71"/> 
            <circle cx="101.54" cy="155.69" r="5.71"/> 
            <circle cx="62.00" cy="138.76" r="5.71"/> 
            <circle cx="21.83" cy="123.80" r="5.71"/> 
            <circle cx="77.57" cy="137.99" r="5.71"/> 
            <circle cx="38.03" cy="121.46" r="5.71"/> 
            <circle cx="53.02" cy="122.77" r="5.71"/> 
            <circle cx="92.64" cy="139.18" r="5.71"/> 
            <circle cx="28.41" cy="107.92" r="5.71"/> 
            <circle cx="69.21" cy="122.12" r="5.71"/> 
            <circle cx="45.90" cy="105.15" r="5.71"/> 
        </g>
        <g style="fill:#00B771; stroke-width:0.00; stroke:#000000" 
           id="1_Amplitude"> 
            <circle cx="109.19" cy="138.37" r="5.71"/> 
            <circle cx="36.57" cy="92.79" r="5.71"/> 
            <circle cx="61.32" cy="107.09" r="5.71"/> 
            <circle cx="86.08" cy="121.38" r="5.71"/> 
            <circle cx="101.86" cy="123.50" r="5.71"/> 
            <circle cx="78.75" cy="106.69" r="5.71"/> 
            <circle cx="55.64" cy="89.89" r="5.71"/> 
            <circle cx="46.24" cy="78.58" r="5.71"/> 
            <circle cx="71.56" cy="92.59" r="5.71"/> 
            <circle cx="97.26" cy="106.43" r="5.71"/> 
            <circle cx="67.11" cy="75.88" r="5.71"/> 
            <circle cx="57.32" cy="65.44" r="5.71"/> 
            <circle cx="120.60" cy="123.27" r="5.71"/> 
            <circle cx="90.43" cy="92.81" r="5.71"/> 
            <circle cx="83.55" cy="79.51" r="5.71"/> 
            <circle cx="113.86" cy="109.83" r="5.71"/> 
            <circle cx="69.68" cy="53.49" r="5.71"/> 
            <circle cx="80.15" cy="63.32" r="5.71"/> 
            <circle cx="110.80" cy="93.58" r="5.71"/> 
            <circle cx="103.99" cy="80.76" r="5.71"/> 
            <circle cx="97.11" cy="68.06" r="5.71"/> 
            <circle cx="83.19" cy="42.87" r="5.71"/> 
            <circle cx="94.58" cy="52.38" r="5.71"/> 
            <circle cx="135.16" cy="111.17" r="5.71"/> 
            <circle cx="128.22" cy="98.65" r="5.71"/> 
            <circle cx="97.73" cy="33.69" r="5.71"/> 
            <circle cx="112.01" cy="58.43" r="5.71"/> 
            <circle cx="119.16" cy="70.81" r="5.71"/> 
        </g>
        <g style="fill:#FFA500; stroke-width:0.00; stroke:#000000" 
           id="2_Chilean-Agrarian-Party"> 
            <circle cx="126.30" cy="83.18" r="5.71"/> 
        </g>
        <g style="fill:#A0522D; stroke-width:0.00; stroke:#000000" 
           id="3_Christian-Democratic-Party"> 
            <circle cx="110.19" cy="43.21" r="5.71"/> 
        </g>
        <g style="fill:#797979; stroke-width:0.00; stroke:#000000" 
           id="4_Christian-Democratic-Party"> 
            <circle cx="113.12" cy="26.04" r="5.71"/> 
            <circle cx="128.02" cy="50.78" r="5.71"/> 
            <circle cx="144.42" cy="90.38" r="5.71"/> 
            <circle cx="135.60" cy="63.15" r="5.71"/> 
            <circle cx="126.78" cy="35.95" r="5.71"/> 
            <circle cx="152.11" cy="102.74" r="5.71"/> 
            <circle cx="143.33" cy="75.54" r="5.71"/> 
            <circle cx="129.22" cy="20.01" r="5.71"/> 
            <circle cx="144.87" cy="45.22" r="5.71"/> 
        </g>
        <g style="fill:#D3D3D3; stroke-width:0.00; stroke:#000000" 
           id="5_Christian-Democratic-Party"> 
            <circle cx="144.10" cy="30.68" r="5.71"/> 
            <circle cx="152.98" cy="57.96" r="5.71"/> 
            <circle cx="145.85" cy="15.65" r="5.71"/> 
            <circle cx="161.89" cy="85.29" r="5.71"/> 
            <circle cx="161.40" cy="70.86" r="5.71"/> 
            <circle cx="162.29" cy="41.84" r="5.71"/> 
            <circle cx="161.93" cy="27.50" r="5.71"/> 
            <circle cx="170.53" cy="98.40" r="5.71"/> 
            <circle cx="162.83" cy="13.02" r="5.71"/> 
            <circle cx="170.93" cy="55.33" r="5.71"/> 
            <circle cx="180.00" cy="12.14" r="5.71"/> 
            <circle cx="180.00" cy="26.43" r="5.71"/> 
            <circle cx="180.00" cy="40.71" r="5.71"/> 
            <circle cx="180.00" cy="69.29" r="5.71"/> 
            <circle cx="180.00" cy="83.57" r="5.71"/> 
            <circle cx="189.07" cy="55.33" r="5.71"/> 
            <circle cx="197.17" cy="13.02" r="5.71"/> 
        </g>
        <g style="fill:#985698; stroke-width:0.00; stroke:#000000" 
           id="6_Christian-Democratic-Party"> 
            <circle cx="189.47" cy="98.40" r="5.71"/> 
            <circle cx="198.07" cy="27.50" r="5.71"/> 
            <circle cx="197.71" cy="41.84" r="5.71"/> 
            <circle cx="198.60" cy="70.86" r="5.71"/> 
            <circle cx="198.11" cy="85.29" r="5.71"/> 
            <circle cx="214.15" cy="15.65" r="5.71"/> 
            <circle cx="207.02" cy="57.96" r="5.71"/> 
            <circle cx="215.90" cy="30.68" r="5.71"/> 
            <circle cx="215.13" cy="45.22" r="5.71"/> 
            <circle cx="230.78" cy="20.01" r="5.71"/> 
            <circle cx="216.67" cy="75.54" r="5.71"/> 
            <circle cx="207.89" cy="102.74" r="5.71"/> 
            <circle cx="233.22" cy="35.95" r="5.71"/> 
            <circle cx="224.40" cy="63.15" r="5.71"/> 
            <circle cx="215.58" cy="90.38" r="5.71"/> 
            <circle cx="231.98" cy="50.78" r="5.71"/> 
            <circle cx="246.88" cy="26.04" r="5.71"/> 
            <circle cx="249.81" cy="43.21" r="5.71"/> 
            <circle cx="233.70" cy="83.18" r="5.71"/> 
            <circle cx="240.84" cy="70.81" r="5.71"/> 
            <circle cx="247.99" cy="58.43" r="5.71"/> 
            <circle cx="262.27" cy="33.69" r="5.71"/> 
            <circle cx="231.78" cy="98.65" r="5.71"/> 
            <circle cx="224.84" cy="111.17" r="5.71"/> 
            <circle cx="265.42" cy="52.38" r="5.71"/> 
        </g>
        <g style="fill:#00008B; stroke-width:0.00; stroke:#000000" 
           id="7_Christian-Democratic-Party"> 
            <circle cx="276.81" cy="42.87" r="5.71"/> 
            <circle cx="262.89" cy="68.06" r="5.71"/> 
            <circle cx="256.01" cy="80.76" r="5.71"/> 
            <circle cx="249.20" cy="93.58" r="5.71"/> 
            <circle cx="279.85" cy="63.32" r="5.71"/> 
            <circle cx="290.32" cy="53.49" r="5.71"/> 
            <circle cx="246.14" cy="109.83" r="5.71"/> 
            <circle cx="276.45" cy="79.51" r="5.71"/> 
            <circle cx="269.57" cy="92.81" r="5.71"/> 
            <circle cx="239.40" cy="123.27" r="5.71"/> 
            <circle cx="302.68" cy="65.44" r="5.71"/> 
        </g>
        <g style="fill:#3B83BD; stroke-width:0.00; stroke:#000000" 
           id="8_Christian-Democratic-Party"> 
            <circle cx="292.89" cy="75.88" r="5.71"/> 
            <circle cx="262.74" cy="106.43" r="5.71"/> 
            <circle cx="288.44" cy="92.59" r="5.71"/> 
            <circle cx="313.76" cy="78.58" r="5.71"/> 
            <circle cx="304.36" cy="89.89" r="5.71"/> 
            <circle cx="281.25" cy="106.69" r="5.71"/> 
            <circle cx="258.14" cy="123.50" r="5.71"/> 
            <circle cx="273.92" cy="121.38" r="5.71"/> 
            <circle cx="298.68" cy="107.09" r="5.71"/> 
            <circle cx="323.43" cy="92.79" r="5.71"/> 
            <circle cx="250.81" cy="138.37" r="5.71"/> 
            <circle cx="314.10" cy="105.15" r="5.71"/> 
            <circle cx="290.79" cy="122.12" r="5.71"/> 
            <circle cx="331.59" cy="107.92" r="5.71"/> 
            <circle cx="267.36" cy="139.18" r="5.71"/> 
            <circle cx="306.98" cy="122.77" r="5.71"/> 
            <circle cx="321.97" cy="121.46" r="5.71"/> 
            <circle cx="282.43" cy="137.99" r="5.71"/> 
            <circle cx="338.17" cy="123.80" r="5.71"/> 
            <circle cx="298.00" cy="138.76" r="5.71"/> 
            <circle cx="258.46" cy="155.69" r="5.71"/> 
            <circle cx="313.23" cy="139.37" r="5.71"/> 
            <circle cx="327.88" cy="138.57" r="5.71"/> 
            <circle cx="273.47" cy="156.31" r="5.71"/> 
            <circle cx="343.09" cy="140.27" r="5.71"/> 
            <circle cx="288.04" cy="155.80" r="5.71"/> 
            <circle cx="302.73" cy="156.28" r="5.71"/> 
            <circle cx="317.31" cy="156.64" r="5.71"/> 
            <circle cx="331.73" cy="156.27" r="5.71"/> 
            <circle cx="346.30" cy="157.16" r="5.71"/> 
            <circle cx="261.94" cy="174.29" r="5.71"/> 
            <circle cx="276.26" cy="174.29" r="5.71"/> 
            <circle cx="290.57" cy="174.29" r="5.71"/> 
            <circle cx="304.87" cy="174.29" r="5.71"/> 
            <circle cx="319.17" cy="174.29" r="5.71"/> 
            <circle cx="333.47" cy="174.29" r="5.71"/> 
            <circle cx="347.76" cy="174.29" r="5.71"/> 
        </g>
    </g>
</svg>
